<?xml version="1.0" encoding="utf-8"?>
<!-- Modified to be 'Previous Song' icon without circle -->
<svg fill="#000000" height="800px" width="800px" version="1.1" id="Layer_1" xmlns="http://www.w3.org/2000/svg" xmlns:xlink="http://www.w3.org/1999/xlink"
	viewBox="0 0 512 512" xml:space="preserve">
	<g transform="scale(-1,1) translate(-512,0)">
		<g>
			<path d="M311.843,233.811l-138.971-80.236c-8.024-4.631-17.601-4.631-25.624-0.001c-8.022,4.631-12.812,12.927-12.812,22.191
				v160.471c0,9.264,4.79,17.558,12.812,22.191c4.01,2.317,8.41,3.474,12.81,3.474c4.401,0,8.802-1.158,12.812-3.474l138.973-80.236
				c8.021-4.63,12.811-12.927,12.811-22.19C324.654,246.738,319.864,238.442,311.843,233.811z M161.083,334.461V177.539
				l135.899,78.46L161.083,334.461z"/>
		</g>
	</g>
	<g transform="scale(-1,1) translate(-512,0)">
		<g>
			<path d="M364.241,153.2c-7.358,0-13.324,5.967-13.324,13.324v178.968c0,7.358,5.966,13.324,13.324,13.324
				s13.324-5.965,13.324-13.324V166.524C377.565,159.167,371.599,153.2,364.241,153.2z"/>
		</g>
	</g>
</svg>
